<svg id="icons" xmlns="http://www.w3.org/2000/svg" xmlns:xlink="http://www.w3.org/1999/xlink" viewBox="0 0 128 128"><defs><style>.cls-1{fill:url(#linear-gradient);}.cls-2{fill:none;stroke:#000;stroke-miterlimit:10;opacity:0.12;}.cls-3{fill:url(#linear-gradient-2);}.cls-4{fill:#fff;}.cls-5{fill:url(#linear-gradient-3);}</style><linearGradient id="linear-gradient" x1="64" y1="97.0787" x2="64" y2="16" gradientUnits="userSpaceOnUse"><stop offset="0" stop-color="#234cc3"/><stop offset="1" stop-color="#479ce2"/></linearGradient><linearGradient id="linear-gradient-2" x1="64" y1="112" x2="64" y2="30.92125" gradientUnits="userSpaceOnUse"><stop offset="0" stop-color="#23b2c3"/><stop offset="0.99962" stop-color="#47dae2"/></linearGradient><linearGradient id="linear-gradient-3" x1="64" y1="72" x2="64" y2="56" gradientUnits="userSpaceOnUse"><stop offset="0" stop-color="#ffde43"/><stop offset="0.99962" stop-color="#fff588"/></linearGradient></defs><title>flower</title><path class="cls-1" d="M48.07,33.53a18.43493,18.43493,0,0,0-2.32-1.14,18.35554,18.35554,0,0,1,36.5,0,18.46973,18.46973,0,0,1,.18,2.59c0,10.47-8.23,28.92-18.4,28.96-.01-.02-.02-.05-.03-.07,1.68-3,1.43-6.85,0-10.85C61.24,45.26,54.04,36.98,48.07,33.53ZM63.933,64.004c-5.11969-8.78742-25.21283-6.68982-34.28009-1.45484A19.00851,19.00851,0,0,0,22.43079,88a18.60245,18.60245,0,0,0,23.31915,7.60992,18.43288,18.43288,0,0,1-.17279-2.57916C45.58,86.13562,49.1507,75.76019,54.491,69.49c2.74908-3.2384,5.95831-5.37994,9.39636-5.425C63.89972,64.04633,63.92072,64.02264,63.933,64.004Zm36.567-.004a18.43141,18.43141,0,0,1-2.14722,1.43921C92.38,68.88434,81.60931,70.97974,73.509,69.49c-4.17907-.7616-7.6383-2.47009-9.39636-5.425-.02234-.00134-.05334-.00769-.07568-.009-5.0503,8.82751,6.81286,25.17987,15.88012,30.41486A18.39962,18.39962,0,0,0,100.50006,64Z"/><path class="cls-2" d="M38.39062,95.57861A16.91279,16.91279,0,0,1,23.72949,87.25a17.50808,17.50808,0,0,1,6.67285-23.40137c4.48926-2.59179,11.85743-4.333,18.335-4.333,5.54786,0,9.91309,1.23829,12.417,3.46a16.65654,16.65654,0,0,0-7.80664,5.54394c-5.28125,6.19971-9.26758,16.73779-9.27051,24.51074-.001.53565.01855,1.06641.05859,1.58789a17.60839,17.60839,0,0,1-5.74414.96045Zm51.21876,0a17.64786,17.64786,0,0,1-6.78516-1.35449,17.259,17.259,0,0,1-2.1582-1.05273C72.5293,88.47314,62.88672,75.043,64.53418,66.97559a16.668,16.668,0,0,0,8.706,3.99023,33.41963,33.41963,0,0,0,6.01075.51074c7.06933,0,14.86132-1.85986,19.85058-4.73779q.69727-.40063,1.34571-.84424A17.11945,17.11945,0,0,1,104.27051,87.25,16.91072,16.91072,0,0,1,89.60938,95.57861ZM66.30957,62.0498a16.665,16.665,0,0,0-.89746-9.53466C62.68359,44.8418,55.55078,36.12061,48.82129,32.231c-.46387-.26807-.93359-.5166-1.4043-.74268A16.8403,16.8403,0,0,1,80.7627,32.58594a17.13547,17.13547,0,0,1,.167,2.394C80.92969,44.377,74.12012,59.44287,66.30957,62.0498Z"/><path class="cls-3" d="M29.64716,62.56073a18.439,18.439,0,0,0-2.14722,1.43921,18.43,18.43,0,0,1,20.583-30.47083c9.06726,5.235,20.93042,21.58741,15.88012,30.41486-.02234-.00134-.05334-.00763-.07568-.009C62.12933,60.98,58.6701,59.27155,54.491,58.51,46.39069,57.0202,35.62,59.1156,29.64716,62.56073ZM64,74.98c-1.43-4-1.68-7.85,0-10.85-.01-.02-.02-.05-.03-.07-10.17.04-18.4,18.49-18.4,28.96a18.39961,18.39961,0,0,0,36.68,2.59,18.43493,18.43493,0,0,1-2.32-1.14C73.96,91.02,66.76,82.74,64,74.98ZM105.56921,40a18.60249,18.60249,0,0,0-23.31915-7.61,18.43374,18.43374,0,0,1,.17279,2.57917C82.42,41.86432,78.8493,52.23975,73.509,58.51c-2.74908,3.2384-5.95831,5.37994-9.39636,5.425-.01233.01867-.03333.04229-.04565.061,5.11969,8.78748,25.21283,6.68988,34.28009,1.45484A19.00848,19.00848,0,0,0,105.56921,40Z"/><path class="cls-2" d="M64,110.5A17.5079,17.5079,0,0,1,47.07031,93.02c0-9.397,6.80957-24.46289,14.62012-27.06982a16.665,16.665,0,0,0,.89746,9.53466C65.31641,83.1582,72.44922,91.87939,79.17871,95.769c.46387.26807.93359.5166,1.4043.74268A17.11855,17.11855,0,0,1,64,110.5ZM79.2627,68.48438c-5.54786,0-9.91309-1.23877-12.417-3.46a16.66,16.66,0,0,0,7.80664-5.54394c5.28125-6.19971,9.26758-16.73779,9.27051-24.51074.001-.53565-.01855-1.06641-.05859-1.58789a17.6142,17.6142,0,0,1,5.74512-.96045A16.91072,16.91072,0,0,1,104.27051,40.75a17.50808,17.50808,0,0,1-6.67285,23.40137c-4.48926,2.59179-11.85645,4.333-18.334,4.333Zm-51.71-6.37891A17.11945,17.11945,0,0,1,23.72949,40.75a16.91072,16.91072,0,0,1,14.66113-8.32861,17.64786,17.64786,0,0,1,6.78516,1.35449A16.98827,16.98827,0,0,1,47.333,34.82812C55.4707,39.52686,65.11328,52.957,63.46582,61.02441a16.668,16.668,0,0,0-8.706-3.99023,33.415,33.415,0,0,0-6.01172-.51074c-7.06836,0-14.85938,1.85937-19.84961,4.73779Q28.20116,61.66187,27.55273,62.10547Z"/><circle class="cls-4" cx="64" cy="64" r="14"/><circle class="cls-2" cx="64" cy="64" r="12.5"/><circle class="cls-5" cx="64" cy="64" r="8"/><circle class="cls-2" cx="64" cy="64" r="6.5"/></svg>